<?xml version="1.0" encoding="utf-8"?>
<!-- Generator: Adobe Illustrator 25.3.1, SVG Export Plug-In . SVG Version: 6.00 Build 0)  -->
<svg version="1.1" id="Layer_1" xmlns="http://www.w3.org/2000/svg" xmlns:xlink="http://www.w3.org/1999/xlink" x="0px" y="0px"
	 viewBox="0 0 232.5 124.7" style="enable-background:new 0 0 232.5 124.7;" xml:space="preserve">
<style type="text/css">
	.st0{fill:none;stroke:#092534;stroke-width:2;stroke-miterlimit:10;}
	.st1{fill:#092534;stroke:#092534;stroke-width:2;stroke-miterlimit:10;}
</style>
<g>
	<path class="st0" d="M228.5,96.4c-1.5,1.7-1.1,4-2,5.8c-0.6,1.1-0.6,2.8-2.3,3.1c0.2-1.6,0.6-3.2,0.7-4.8
		c0.5-7.4-5.1-11.4-11.7-7.8c-15,8.2-30.1,7.5-45.5,1.5c-5.6-2.2-11.2-4.3-16.7-6.5c-23.5-9.2-46.5-8.5-69.3,2.7
		c-18.3,8.9-36.2,18.4-54,28.3c-8.8-2.7-15.4-8.1-19.5-16.4c-1.3-2.5-2.3-5.1-3.5-7.7c4.8-8.8,13.3-13,21.7-17.2
		c8.6-4.3,17.6-7.6,26.8-10.4c20.3-6.3,41-11.6,62.3-11.4c30.7,0.2,59.4,9,87,21.9c9.2,4.3,18.5,8.8,24.9,17.4
		c0.1,0.2,0.7,0.1,1.1,0.1C228.5,95.4,228.5,95.9,228.5,96.4z"/>
	<path class="st1" d="M228.5,94.9c-0.4,0-0.9,0.1-1.1-0.1c-6.3-8.6-15.6-13.1-24.9-17.4c-27.6-12.9-56.3-21.7-87-21.9
		c-21.4-0.1-42,5.2-62.3,11.4c-9.2,2.8-18.2,6.1-26.8,10.4c-8.4,4.2-16.9,8.5-21.7,17.2c-0.4-0.7,0.1-1.8-1.1-2c0-1.7,0-3.5,0-5.2
		c1.6-2,1.2-4.6,1.8-6.9c1.6-5.9,3.6-11.7,6.4-17.2c2,1.1,2.7-0.6,3.5-1.7c3.5-4.5,7-9.1,10.5-13.6c0.7-0.9,1.1-2.5,2.9-1.5
		c-0.6,1-1.2,1.9-1.8,2.8c-3.2,4.9-6.5,9.8-9.7,14.7c-0.4,0.7-1.8,1.5-0.4,2.5c1.2,0.9,1.3-0.7,1.9-1.1c0.3-0.2,0.6-0.3,1.1-0.5
		c0.7,3.5-2.9,6.5-0.9,10c0.4-0.4,0.8-0.9,1.2-0.9c3.2-0.3,5.8-2,8.5-3.3c1.5-0.7,4.1-3.3,6.8-1.3c0.4,0.3,1.7-0.6,1.7-1.6
		c0-0.9,0.3-1.6,1.2-1.5c4.3,0.4,8.4,0.1,10.6-4.5c0.7,1-1.1,3.8,2.4,2c2.9-1.5,6.5-2.2,10-2.8c3.1-0.5,7,0.2,9.2-3.4
		c0.2-0.3,1.4-1.7,2-0.2c0.9,2.2,2.1,0.9,3.1,0.3c0.8-0.4,1.3-1.6,2.5-1.2c2.2,0.8,4.1-0.9,5.8-1.1c4.1-0.3,8.2-0.3,12.3-1.4
		c0.9-0.2,3,0.8,4.5,0.5c8.6-1.6,17.4,0.2,26-1.7c0.8-0.2,1.9,0,2.5,0.4c2.7,1.9,6.1-0.8,8.7,1.3c0.1,0.1,0.6-0.1,0.6-0.2
		c0.2-4.1,2.7-1.4,4.3-1.5c2.7-0.2,5.6-0.3,8-1.3c1.4-0.6-1.3-2.3-0.6-3.9c2.1-0.5,4.5-0.3,5.4,1.4c1.4,2.8,3.5,2.3,5.6,2.1
		c3.6-0.3,7.3,0.8,9.1,3.3c2.4,3.3,6,4.9,8.8,7.6c0.7,0.7,1.6,0.8,2.3,0.1c0.7-0.7,0-1.4-0.3-2c-1.8-2.8-3.4-5.8-5.7-8.3
		c-4.1-4.3-7.9-8.9-13.1-12.3c2.4-1.6,4.1-1.3,6.1,0.2C178.2,47,186.8,55,195,63.3c0.3,0.3,0.7,0.6,1.1,0.9
		c-2.5-8.4-9.5-13.4-14.4-20.2c4.4,2,8.4,4.5,13.3,4.5c0.5,0,1.1,1,1.6,1.5c4.9,4.8,9.4,10,12.7,16.1c0.7,1.3,1.5,2.6,3.1,3
		c0.5,0.6,1,1.2,1.5,1.8c0.1-0.9,0-1.8-0.9-2.4c-1-1.9-2-3.8-3-5.7c3.4,1.3,3.8,5.5,7.1,6.9c-2.1-3.7-3-8.2-6.6-11
		c-2-1.5-2.7-3.3-2-6.1c4.2,3.3,6.9,7.6,9.4,11.8c2.5,4.2,4.3,8.7,6.1,13.8c0.5-0.9,0.7-1.2,0.7-1.4c0-0.5-0.2-1-0.3-1.4
		c-2.6-8.6-6.7-16.3-12.4-23.2c-0.5-0.6-2.8-1.7,0.1-2.3c0,0,0,0,0,0c0.1,0.9,0.7,1.4,1.5,1.6c6.7,8.9,12.6,18.2,14.5,29.4
		c0,0.2,0.4,0.3,0.6,0.4C228.5,85.9,228.5,90.4,228.5,94.9z"/>
	<path class="st0" d="M212.3,69.2c-1.6-0.4-2.4-1.7-3.1-3c-3.3-6.1-7.8-11.3-12.7-16.1c-0.5-0.5-1.1-1.5-1.6-1.5
		c-4.9,0-8.9-2.5-13.3-4.5c5,6.8,12,11.8,14.4,20.2c-0.4-0.3-0.8-0.5-1.1-0.9c-8.2-8.3-16.8-16.3-26.1-23.4
		c-1.9-1.5-3.7-1.8-6.1-0.2c5.2,3.4,9,8,13.1,12.3c2.4,2.5,3.9,5.5,5.7,8.3c0.4,0.6,1,1.3,0.3,2c-0.7,0.7-1.6,0.6-2.3-0.1
		c-2.7-2.7-6.3-4.3-8.8-7.6c-1.8-2.5-5.5-3.6-9.1-3.3c-2.2,0.2-4.2,0.6-5.6-2.1c-0.9-1.8-3.3-1.9-5.4-1.4c-0.7,1.5,2.1,3.3,0.6,3.9
		c-2.4,1-5.3,1.1-8,1.3c-1.6,0.1-4.1-2.5-4.3,1.5c0,0.1-0.5,0.3-0.6,0.2c-2.6-2.2-6,0.6-8.7-1.3c-0.6-0.4-1.7-0.6-2.5-0.4
		c-8.6,1.9-17.4,0.1-26,1.7c-1.5,0.3-3.6-0.8-4.5-0.5c-4.1,1-8.2,1.1-12.3,1.4c-1.8,0.1-3.6,1.8-5.8,1.1c-1.3-0.5-1.7,0.7-2.5,1.2
		c-1,0.6-2.2,2-3.1-0.3c-0.6-1.5-1.8-0.1-2,0.2c-2.1,3.6-6.1,2.9-9.2,3.4c-3.5,0.6-7.1,1.3-10,2.8c-3.5,1.7-1.7-1-2.4-2
		c-2.3,4.7-6.3,4.9-10.6,4.5c-0.9-0.1-1.2,0.6-1.2,1.5c0,1-1.3,1.9-1.7,1.6c-2.7-2-5.3,0.6-6.8,1.3c-2.8,1.3-5.3,3.1-8.5,3.3
		c-0.4,0-0.8,0.6-1.2,0.9c-2-3.5,1.6-6.5,0.9-10c-0.5,0.2-0.8,0.4-1.1,0.5c-0.6,0.4-0.6,1.9-1.9,1.1c-1.4-1,0-1.8,0.4-2.5
		c3.2-4.9,6.4-9.8,9.7-14.7c0.6-0.9,1.2-1.9,1.8-2.8c-1.8-0.9-2.2,0.6-2.9,1.5c-3.5,4.5-7,9.1-10.5,13.6c-0.9,1.1-1.6,2.8-3.5,1.7
		c4.7-10.4,11-19.5,20.2-26.4c14.3-10.6,29.8-19,46.9-24.1c9.6-2.9,19.4-4.3,29.3-4.9c20.6-1.3,40.6,1.7,59.8,9.7
		c8.5,3.6,16.7,7.9,24.3,13.2c1.2,0.8,3.1,1.3,3.1,3.4c-2.5-1-4.9-2.1-7.4-3.1c1.9,4.5,6.8,5,9.9,7.8c3.4,3,6.8,6,10.2,9.1
		c-2.2-5.3-7.1-8.2-10.8-12.2c2.8-0.8,4,1.6,5.6,2.9c3.7,3.1,7.6,6.2,9,11.2c-2.8,0.7-0.6,1.7-0.1,2.3c5.8,6.9,9.9,14.6,12.4,23.2
		c0.1,0.5,0.3,1,0.3,1.4c0,0.2-0.2,0.4-0.7,1.4c-1.8-5.1-3.6-9.6-6.1-13.8c-2.5-4.2-5.1-8.5-9.4-11.8c-0.7,2.8,0,4.5,2,6.1
		c3.6,2.8,4.5,7.2,6.6,11c-3.3-1.4-3.7-5.6-7.1-6.9c1,1.9,2,3.8,3,5.7C212.7,68.8,212.5,69,212.3,69.2z M36.4,58.3
		c4.1-0.3,7.9-2.2,11.5-4.2c2.6-1.4,5.3-2.7,7-5.3c0.4-0.7,1.4-1.3,0.6-2.2c-0.6-0.7-1.4-1-2.4-0.8c-7.1,1.2-13.4,4.1-18.7,9.2
		c-0.7,0.7-1.7,1.4-1.3,2.5C33.7,58.7,35.1,58,36.4,58.3z"/>
	<path class="st1" d="M197.5,35.9c3.7,4,8.6,6.9,10.8,12.2c-3.4-3-6.8-6-10.2-9.1c-3.1-2.8-8-3.3-9.9-7.8c2.5,1,4.9,2.1,7.4,3.1
		C196.2,34.9,196.8,35.4,197.5,35.9z"/>
	<path class="st0" d="M213.5,51.7c-0.8-0.3-1.4-0.8-1.5-1.6C213.2,49.9,213.5,50.6,213.5,51.7z"/>
	<path class="st1" d="M27.8,118.8c17.8-9.9,35.7-19.4,54-28.3c22.7-11.1,45.8-11.8,69.3-2.7c5.6,2.2,11.2,4.3,16.7,6.5
		c15.4,6,30.5,6.7,45.5-1.5c6.5-3.6,12.2,0.4,11.7,7.8c-0.1,1.6-0.5,3.2-0.7,4.8c-5.7,14.8-21.8,18.3-36.3,14.5
		c-4.1-1.1-7.9-3.1-11.7-4.9c-11.1-7.4-20.1-18.1-33.1-23c-0.5,1.9,2.5,1.7,1.2,4.2c-16.4-8.6-33.5-8.7-50.8-2.7
		c-0.3-1.9,2.3-1.4,1.1-2.7c-0.6-0.7-1.9-0.1-3,0.4c-13,5.3-23.9,13.8-34.7,22.5c-6.9,4.2-14.3,6.7-22.4,6.8
		C32.2,120.4,29.8,120.2,27.8,118.8z M107.9,86.8c7.9-0.5,15.7-0.8,23.5,1.2C123.7,85.7,115.9,85,107.9,86.8z"/>
	<path class="st0" d="M57,113.6c10.8-8.7,21.7-17.1,34.7-22.5c1.1-0.5,2.4-1.1,3-0.4c1.2,1.3-1.5,0.8-1.1,2.7
		c17.3-6,34.4-5.9,50.8,2.7c1.3-2.5-1.7-2.3-1.2-4.2c13,4.9,22,15.5,33.1,23c-2.5,0.7-4.3-1-6.2-2c-8.7-4.6-17.4-9.2-25.8-14.3
		c-15.7-9.6-31.6-9.3-48.2-2.5c-11.7,4.8-22.9,10.5-34.1,16C60.3,112.9,58.8,113.8,57,113.6z"/>
	<path class="st0" d="M213,68.6c0.9,0.6,1,1.5,0.9,2.4c-0.5-0.6-1-1.2-1.5-1.8C212.5,69,212.7,68.8,213,68.6z"/>
	<path class="st0" d="M36.4,58.3c-1.3-0.2-2.7,0.4-3.2-1c-0.4-1.1,0.6-1.8,1.3-2.5c5.2-5.1,11.6-7.9,18.7-9.2
		c0.9-0.2,1.8,0.1,2.4,0.8c0.8,0.9-0.2,1.6-0.6,2.2c-1.7,2.6-4.5,3.9-7,5.3C44.2,56.1,40.4,58,36.4,58.3z"/>
	<path class="st0" d="M107.9,86.8c8-1.8,15.8-1.1,23.5,1.2C123.7,86,115.8,86.4,107.9,86.8z"/>
</g>
</svg>
